<svg width="45" height="45" viewBox="0 0 45 45" fill="none" xmlns="http://www.w3.org/2000/svg">
<rect width="45" height="45" rx="22.5" fill="#282FD9"/>
<path d="M22.4823 35C20.7235 35 19.1709 34.6132 17.8246 33.8395C16.4783 33.0438 15.4143 31.9607 14.6326 30.5902C13.8726 29.1976 13.4926 27.6061 13.4926 25.8157C13.4926 24.0031 13.8726 22.4116 14.6326 21.0411C15.4143 19.6486 16.4783 18.5654 17.8246 17.7918C19.1709 16.996 20.7235 16.5982 22.4823 16.5982C24.2195 16.5982 25.7612 16.996 27.1075 17.7918C28.4537 18.5654 29.5069 19.6486 30.2669 21.0411C31.0486 22.4116 31.4394 24.0031 31.4394 25.8157C31.4394 27.6061 31.0594 29.1976 30.2994 30.5902C29.5394 31.9607 28.4863 33.0438 27.14 33.8395C25.7937 34.6132 24.2412 35 22.4823 35ZM22.4823 32.0159C23.6115 32.0159 24.6103 31.7507 25.4789 31.2202C26.3475 30.6897 27.0206 29.9602 27.4983 29.0318C27.9977 28.1035 28.2475 27.0314 28.2475 25.8157C28.2475 24.5999 27.9977 23.5279 27.4983 22.5995C27.0206 21.649 26.3475 20.9085 25.4789 20.378C24.6103 19.8475 23.6115 19.5822 22.4823 19.5822C21.3532 19.5822 20.3543 19.8475 19.4858 20.378C18.6172 20.9085 17.9332 21.649 17.4338 22.5995C16.9343 23.5279 16.6846 24.5999 16.6846 25.8157C16.6846 27.0314 16.9343 28.1035 17.4338 29.0318C17.9332 29.9602 18.6172 30.6897 19.4858 31.2202C20.3543 31.7507 21.3532 32.0159 22.4823 32.0159Z" fill="white"/>
<path d="M13.4007 10.3238C13.1336 10.5397 13 10.8059 13 11.1225L13 12.7631C13 14.289 14.2152 15.5261 15.7143 15.5261H21.1429V12.763H17.39C16.4999 12.763 15.7784 12.0285 15.7784 11.1225C15.7784 10.8059 15.6537 10.5397 15.4044 10.3238C15.1372 10.1079 14.7988 10 14.3892 10C13.9974 10 13.6679 10.1079 13.4007 10.3238Z" fill="white"/>
<path d="M31.5993 10.3238C31.8664 10.5397 32 10.8059 32 11.1225L32 12.7631C32 14.289 30.7848 15.5261 29.2857 15.5261H23.8571V12.763H27.61C28.5001 12.763 29.2216 12.0285 29.2216 11.1225C29.2216 10.8059 29.3463 10.5397 29.5956 10.3238C29.8628 10.1079 30.2012 10 30.6108 10C31.0026 10 31.3321 10.1079 31.5993 10.3238Z" fill="white"/>
</svg>
