<svg width="37" height="48" viewBox="0 0 37 48" fill="none" xmlns="http://www.w3.org/2000/svg">
<path d="M18.4656 48C15.0404 48 12.017 47.2573 9.3953 45.7719C6.7736 44.244 4.7016 42.1645 3.17931 39.5332C1.69932 36.8594 0.959318 33.8037 0.959318 30.3661C0.959318 26.886 1.69932 23.8303 3.17931 21.199C4.7016 18.5252 6.7736 16.4456 9.3953 14.9602C12.017 13.4324 15.0404 12.6685 18.4656 12.6685C21.8484 12.6685 24.8507 13.4324 27.4724 14.9602C30.0941 16.4456 32.145 18.5252 33.625 21.199C35.1473 23.8303 35.9084 26.886 35.9084 30.3661C35.9084 33.8037 35.1684 36.8594 33.6884 39.5332C32.2084 42.1645 30.1575 44.244 27.5358 45.7719C24.9141 47.2573 21.8907 48 18.4656 48ZM18.4656 42.2706C20.6644 42.2706 22.6096 41.7613 24.301 40.7427C25.9924 39.7241 27.3033 38.3236 28.2336 36.5411C29.2061 34.7586 29.6924 32.7003 29.6924 30.3661C29.6924 28.0318 29.2061 25.9735 28.2336 24.191C27.3033 22.3661 25.9924 20.9443 24.301 19.9258C22.6096 18.9072 20.6644 18.3979 18.4656 18.3979C16.2667 18.3979 14.3216 18.9072 12.6302 19.9258C10.9387 20.9443 9.60673 22.3661 8.63416 24.191C7.66159 25.9735 7.17531 28.0318 7.17531 30.3661C7.17531 32.7003 7.66159 34.7586 8.63416 36.5411C9.60673 38.3236 10.9387 39.7241 12.6302 40.7427C14.3216 41.7613 16.2667 42.2706 18.4656 42.2706Z" fill="#0009E1"/>
<path d="M0.78037 0.621684C0.260124 1.03614 0 1.5473 0 2.15517L1.30444e-05 5.30506C2.69067e-05 8.23494 2.36651 10.6101 5.28571 10.6101H15.8571V5.30504H8.54895C6.81566 5.30504 5.41056 3.89479 5.41056 2.15517C5.41056 1.5473 5.16778 1.03614 4.68222 0.621684C4.16197 0.207228 3.503 0 2.70528 0C1.94226 0 1.30062 0.207228 0.78037 0.621684Z" fill="#0009E1"/>
<path d="M36.2196 0.621684C36.7399 1.03614 37 1.5473 37 2.15517L37 5.30506C37 8.23494 34.6335 10.6101 31.7143 10.6101H21.1429V5.30504H28.451C30.1843 5.30504 31.5894 3.89479 31.5894 2.15517C31.5894 1.5473 31.8322 1.03614 32.3178 0.621684C32.838 0.207228 33.497 0 34.2947 0C35.0577 0 35.6994 0.207228 36.2196 0.621684Z" fill="#0009E1"/>
</svg>
