<svg width="277" height="118" viewBox="0 0 277 118" fill="none" xmlns="http://www.w3.org/2000/svg">
<path d="M40.7586 118C33.0515 118 26.1349 116.196 20.0088 112.589C13.8826 108.881 9.041 103.87 5.48389 97.5567C1.92677 91.2433 0.098809 84.1282 0 76.2115V7.66624C0 5.36136 0.691661 3.50743 2.07498 2.10446C3.55712 0.701486 5.38508 0 7.55887 0C9.83147 0 11.6594 0.701486 13.0428 2.10446C14.4261 3.50743 15.1177 5.36136 15.1177 7.66624V48.2522C18.5761 44.0433 22.726 40.7363 27.5677 38.3312C32.5081 35.8259 37.8932 34.5732 43.7229 34.5732C50.9359 34.5732 57.4079 36.4272 63.1388 40.135C68.8697 43.7427 73.3655 48.7032 76.6262 55.0166C79.9857 61.2297 81.6655 68.2947 81.6655 76.2115C81.6655 84.1282 79.8375 91.2433 76.1816 97.5567C72.6244 103.87 67.7828 108.881 61.6567 112.589C55.5305 116.196 48.5645 118 40.7586 118ZM40.7586 104.471C45.7979 104.471 50.2937 103.269 54.246 100.864C58.1984 98.3584 61.3109 94.9512 63.5835 90.642C65.9549 86.3329 67.1406 81.5227 67.1406 76.2115C67.1406 70.8 65.9549 65.9898 63.5835 61.7809C61.3109 57.572 58.1984 54.265 54.246 51.8599C50.2937 49.3546 45.7979 48.1019 40.7586 48.1019C35.8182 48.1019 31.3224 49.3546 27.2712 51.8599C23.3189 54.265 20.2064 57.572 17.9338 61.7809C15.6612 65.9898 14.5249 70.8 14.5249 76.2115C14.5249 81.5227 15.6612 86.3329 17.9338 90.642C20.2064 94.9512 23.3189 98.3584 27.2712 100.864C31.3224 103.269 35.8182 104.471 40.7586 104.471Z" fill="white"/>
<path d="M140.969 118C132.966 118 125.901 116.246 119.775 112.739C113.649 109.131 108.807 104.221 105.25 98.0076C101.792 91.6943 100.062 84.479 100.062 76.3618C100.062 68.1444 101.792 60.9291 105.25 54.7159C108.807 48.4025 113.649 43.4921 119.775 39.9847C125.901 36.3771 132.966 34.5732 140.969 34.5732C148.874 34.5732 155.889 36.3771 162.016 39.9847C168.142 43.4921 172.934 48.4025 176.392 54.7159C179.949 60.9291 181.728 68.1444 181.728 76.3618C181.728 84.479 179.999 91.6943 176.54 98.0076C173.082 104.221 168.29 109.131 162.164 112.739C156.038 116.246 148.973 118 140.969 118ZM140.969 104.471C146.107 104.471 150.653 103.269 154.605 100.864C158.557 98.4586 161.62 95.1516 163.794 90.9427C166.067 86.7338 167.203 81.8735 167.203 76.3618C167.203 70.8501 166.067 65.9898 163.794 61.7809C161.62 57.4718 158.557 54.1146 154.605 51.7096C150.653 49.3045 146.107 48.1019 140.969 48.1019C135.831 48.1019 131.286 49.3045 127.334 51.7096C123.381 54.1146 120.269 57.4718 117.996 61.7809C115.724 65.9898 114.587 70.8501 114.587 76.3618C114.587 81.8735 115.724 86.7338 117.996 90.9427C120.269 95.1516 123.381 98.4586 127.334 100.864C131.286 103.269 135.831 104.471 140.969 104.471Z" fill="white"/>
<path d="M242.318 118C234.117 118 226.805 116.246 220.383 112.739C214.059 109.131 209.069 104.221 205.413 98.0076C201.856 91.6943 200.077 84.479 200.077 76.3618C200.077 68.1444 201.757 60.9291 205.117 54.7159C208.575 48.4025 213.318 43.4921 219.345 39.9847C225.372 36.3771 232.289 34.5732 240.095 34.5732C247.802 34.5732 254.422 36.327 259.955 39.8344C265.489 43.2416 269.688 48.0017 272.554 54.1146C275.518 60.1274 277 67.0921 277 75.0089C277 76.9129 276.358 78.5164 275.073 79.8191C273.789 81.0217 272.158 81.6229 270.182 81.6229H210.452V69.5974H269.738L263.661 73.8064C263.562 68.7958 262.574 64.3363 260.697 60.428C258.819 56.4195 256.151 53.2628 252.693 50.958C249.235 48.6531 245.035 47.5006 240.095 47.5006C234.463 47.5006 229.621 48.7533 225.57 51.2586C221.618 53.7639 218.604 57.2212 216.529 61.6306C214.454 65.9397 213.417 70.8501 213.417 76.3618C213.417 81.8735 214.652 86.7839 217.122 91.093C219.592 95.4021 223.001 98.8093 227.349 101.315C231.696 103.82 236.686 105.073 242.318 105.073C245.381 105.073 248.494 104.521 251.656 103.419C254.916 102.217 257.535 100.864 259.511 99.3605C260.993 98.2582 262.574 97.707 264.254 97.707C266.032 97.6068 267.564 98.1079 268.848 99.2102C270.528 100.713 271.417 102.367 271.516 104.171C271.615 105.975 270.824 107.528 269.145 108.831C265.785 111.536 261.586 113.741 256.547 115.445C251.606 117.148 246.863 118 242.318 118Z" fill="white"/>
<path d="M99.6443 6.12775C98.4286 7.10639 97.8208 8.31337 97.8208 9.7487L97.8208 17.1864C97.8208 24.1046 103.351 29.7129 110.172 29.7129H134.874V17.1863H117.797C113.747 17.1863 110.464 13.8564 110.464 9.7487C110.464 8.31337 109.896 7.10639 108.762 6.12775C107.546 5.14912 106.006 4.6598 104.142 4.6598C102.359 4.6598 100.86 5.14912 99.6443 6.12775Z" fill="white"/>
<path d="M182.455 6.12775C183.671 7.10639 184.279 8.31337 184.279 9.7487L184.279 17.1864C184.279 24.1046 178.749 29.7129 171.928 29.7129H147.225V17.1863H164.302C168.352 17.1863 171.636 13.8564 171.636 9.7487C171.636 8.31337 172.203 7.10639 173.338 6.12775C174.553 5.14912 176.093 4.6598 177.957 4.6598C179.74 4.6598 181.239 5.14912 182.455 6.12775Z" fill="white"/>
</svg>
