<svg width="277" height="138" viewBox="0 0 277 138" fill="none" xmlns="http://www.w3.org/2000/svg">
<rect width="138" height="138" rx="69" fill="#282FD9"/>
<path d="M68.9479 106C63.7639 106 59.1879 104.855 55.2199 102.565C51.2519 100.21 48.1159 97.0035 45.8119 92.947C43.5719 88.8249 42.4519 84.1141 42.4519 78.8143C42.4519 73.4492 43.5719 68.7383 45.8119 64.6817C48.1159 60.5597 51.2519 57.3537 55.2199 55.0637C59.1879 52.7083 63.7639 51.5305 68.9479 51.5305C74.0679 51.5305 78.6119 52.7083 82.5799 55.0637C86.5479 57.3537 89.6519 60.5597 91.8918 64.6817C94.1958 68.7383 95.3478 73.4492 95.3478 78.8143C95.3478 84.1141 94.2278 88.8249 91.9878 92.947C89.7478 97.0035 86.6439 100.21 82.6759 102.565C78.7079 104.855 74.1319 106 68.9479 106ZM68.9479 97.1671C72.2759 97.1671 75.2199 96.382 77.7799 94.8117C80.3399 93.2414 82.3239 91.0822 83.7319 88.3342C85.2039 85.5862 85.9399 82.4129 85.9399 78.8143C85.9399 75.2158 85.2039 72.0425 83.7319 69.2945C82.3239 66.481 80.3399 64.2892 77.7799 62.7189C75.2199 61.1486 72.2759 60.3634 68.9479 60.3634C65.6199 60.3634 62.6759 61.1486 60.1159 62.7189C57.5559 64.2892 55.5399 66.481 54.0679 69.2945C52.5959 72.0425 51.8599 75.2158 51.8599 78.8143C51.8599 82.4129 52.5959 85.5862 54.0679 88.3342C55.5399 91.0822 57.5559 93.2414 60.1159 94.8117C62.6759 96.382 65.6199 97.1671 68.9479 97.1671Z" fill="white"/>
<path d="M42.1811 32.9584C41.3937 33.5974 41 34.3854 41 35.3226L41 40.1786C41 44.6955 44.5817 48.3572 49 48.3572H65V40.1786H53.9389C51.3156 40.1786 49.189 38.0045 49.189 35.3226C49.189 34.3854 48.8215 33.5974 48.0866 32.9584C47.2992 32.3195 46.3018 32 45.0945 32C43.9396 32 42.9685 32.3195 42.1811 32.9584Z" fill="white"/>
<path d="M95.8189 32.9584C96.6063 33.5974 97 34.3854 97 35.3226L97 40.1786C96.9999 44.6955 93.4182 48.3572 89 48.3572H73V40.1786H84.061C86.6844 40.1786 88.811 38.0045 88.811 35.3226C88.811 34.3854 89.1785 33.5974 89.9134 32.9584C90.7008 32.3195 91.6982 32 92.9055 32C94.0604 32 95.0315 32.3195 95.8189 32.9584Z" fill="white"/>
<path d="M183.843 72.2077H171.479L171.413 65.3955H181.793C183.623 65.3955 185.121 65.164 186.289 64.7011C187.457 64.216 188.328 63.5216 188.901 62.6177C189.496 61.6918 189.793 60.5675 189.793 59.2447C189.793 57.7456 189.507 56.5331 188.934 55.6071C188.383 54.6812 187.512 54.0088 186.322 53.5899C185.154 53.1711 183.645 52.9616 181.793 52.9616H174.917V93.3386H165V45.1905H181.793C184.592 45.1905 187.094 45.455 189.298 45.9841C191.523 46.5132 193.408 47.3179 194.95 48.3981C196.493 49.4784 197.672 50.8452 198.488 52.4987C199.303 54.1301 199.711 56.0701 199.711 58.3188C199.711 60.3029 199.259 62.1327 198.355 63.8082C197.474 65.4837 196.074 66.8505 194.157 67.9087C192.262 68.9669 189.782 69.5511 186.719 69.6614L183.843 72.2077ZM183.413 93.3386H168.769L172.636 85.6005H183.413C185.154 85.6005 186.576 85.325 187.678 84.7738C188.78 84.2006 189.595 83.429 190.124 82.459C190.653 81.489 190.917 80.3757 190.917 79.119C190.917 77.7081 190.675 76.4846 190.19 75.4484C189.727 74.4123 188.978 73.6186 187.942 73.0675C186.906 72.4943 185.54 72.2077 183.843 72.2077H174.289L174.355 65.3955H186.256L188.537 68.0741C191.468 68.03 193.826 68.5481 195.612 69.6283C197.419 70.6865 198.73 72.0644 199.545 73.7619C200.383 75.4594 200.802 77.2782 200.802 79.2183C200.802 82.3047 200.129 84.9061 198.785 87.0225C197.441 89.1168 195.468 90.6931 192.868 91.7513C190.289 92.8095 187.138 93.3386 183.413 93.3386Z" fill="#171A21"/>
<path d="M206.124 75.8122V75.1177C206.124 72.4943 206.499 70.0802 207.248 67.8757C207.997 65.649 209.088 63.72 210.521 62.0886C211.953 60.4572 213.716 59.1896 215.81 58.2857C217.904 57.3598 220.306 56.8968 223.017 56.8968C225.727 56.8968 228.14 57.3598 230.256 58.2857C232.372 59.1896 234.146 60.4572 235.579 62.0886C237.033 63.72 238.135 65.649 238.884 67.8757C239.634 70.0802 240.008 72.4943 240.008 75.1177V75.8122C240.008 78.4136 239.634 80.8276 238.884 83.0542C238.135 85.2588 237.033 87.1878 235.579 88.8413C234.146 90.4727 232.383 91.7403 230.289 92.6442C228.196 93.5481 225.793 94 223.083 94C220.372 94 217.959 93.5481 215.843 92.6442C213.749 91.7403 211.975 90.4727 210.521 88.8413C209.088 87.1878 207.997 85.2588 207.248 83.0542C206.499 80.8276 206.124 78.4136 206.124 75.8122ZM215.645 75.1177V75.8122C215.645 77.3113 215.777 78.7112 216.041 80.0119C216.306 81.3126 216.725 82.459 217.298 83.4511C217.893 84.4211 218.664 85.1817 219.612 85.7328C220.559 86.2839 221.716 86.5595 223.083 86.5595C224.405 86.5595 225.54 86.2839 226.488 85.7328C227.435 85.1817 228.196 84.4211 228.769 83.4511C229.342 82.459 229.76 81.3126 230.025 80.0119C230.311 78.7112 230.455 77.3113 230.455 75.8122V75.1177C230.455 73.6627 230.311 72.2959 230.025 71.0172C229.76 69.7165 229.331 68.5701 228.736 67.578C228.163 66.5639 227.402 65.7703 226.455 65.1971C225.507 64.6239 224.361 64.3373 223.017 64.3373C221.672 64.3373 220.526 64.6239 219.579 65.1971C218.653 65.7703 217.893 66.5639 217.298 67.578C216.725 68.5701 216.306 69.7165 216.041 71.0172C215.777 72.2959 215.645 73.6627 215.645 75.1177ZM210.289 48.1336C210.289 46.9872 210.719 46.0172 211.579 45.2235C212.46 44.4078 213.54 44 214.818 44C216.14 44 217.231 44.4078 218.091 45.2235C218.95 46.0172 219.38 46.9872 219.38 48.1336C219.38 49.28 218.95 50.25 218.091 51.0437C217.231 51.8373 216.14 52.2341 214.818 52.2341C213.54 52.2341 212.46 51.8373 211.579 51.0437C210.719 50.25 210.289 49.28 210.289 48.1336ZM226.521 48.1667C226.521 46.9982 226.95 46.0172 227.81 45.2235C228.669 44.4299 229.749 44.0331 231.05 44.0331C232.35 44.0331 233.43 44.4299 234.289 45.2235C235.171 46.0172 235.612 46.9982 235.612 48.1667C235.612 49.3131 235.171 50.2831 234.289 51.0767C233.43 51.8483 232.35 52.2341 231.05 52.2341C229.749 52.2341 228.669 51.8483 227.81 51.0767C226.95 50.2831 226.521 49.3131 226.521 48.1667Z" fill="#171A21"/>
<path d="M262.322 94C259.545 94 257.055 93.5591 254.851 92.6772C252.647 91.7734 250.774 90.5278 249.231 88.9405C247.711 87.3532 246.543 85.5123 245.727 83.418C244.912 81.3016 244.504 79.0529 244.504 76.672V75.3492C244.504 72.6376 244.89 70.1574 245.661 67.9087C246.433 65.6601 247.534 63.709 248.967 62.0556C250.421 60.4021 252.185 59.1345 254.256 58.2526C256.328 57.3488 258.664 56.8968 261.264 56.8968C263.799 56.8968 266.047 57.3157 268.008 58.1534C269.97 58.9912 271.612 60.1817 272.934 61.7249C274.278 63.2681 275.292 65.1199 275.975 67.2804C276.658 69.4189 277 71.7998 277 74.4233V78.3915H248.57V72.0423H267.645V71.3148C267.645 69.9921 267.402 68.8126 266.917 67.7765C266.455 66.7183 265.749 65.8805 264.802 65.2632C263.854 64.6459 262.642 64.3373 261.165 64.3373C259.909 64.3373 258.829 64.6129 257.926 65.164C257.022 65.7152 256.284 66.4868 255.711 67.4788C255.16 68.4709 254.741 69.6393 254.455 70.9841C254.19 72.3069 254.058 73.7619 254.058 75.3492V76.672C254.058 78.1049 254.256 79.4277 254.653 80.6402C255.072 81.8527 255.656 82.8999 256.405 83.7817C257.176 84.6636 258.102 85.347 259.182 85.832C260.284 86.317 261.529 86.5595 262.917 86.5595C264.636 86.5595 266.234 86.2288 267.711 85.5675C269.209 84.884 270.499 83.8589 271.579 82.4921L276.207 87.5185C275.457 88.5988 274.433 89.6349 273.132 90.627C271.854 91.619 270.311 92.4347 268.504 93.0741C266.697 93.6914 264.636 94 262.322 94Z" fill="#171A21"/>
</svg>
