<svg width="35" height="35" viewBox="0 0 35 35" fill="none" xmlns="http://www.w3.org/2000/svg">
<path d="M17.5 31.25C25.0939 31.25 31.25 25.0939 31.25 17.5C31.25 9.90608 25.0939 3.75 17.5 3.75C9.90608 3.75 3.75 9.90608 3.75 17.5C3.75 25.0939 9.90608 31.25 17.5 31.25Z" stroke="#636075" stroke-width="2.3" stroke-linecap="round" stroke-linejoin="round"/>
<path d="M13.4381 13.3126C13.7663 12.3797 14.414 11.593 15.2666 11.092C16.1192 10.5909 17.1216 10.4077 18.0963 10.5749C19.0709 10.7421 19.955 11.2489 20.5919 12.0054C21.2287 12.762 21.5773 13.7195 21.5758 14.7084C21.5758 17.5001 17.3883 18.8959 17.3883 18.8959" stroke="#636075" stroke-width="2.3" stroke-linecap="round" stroke-linejoin="round"/>
<path d="M17.5 24.479H17.5138" stroke="#636075" stroke-width="2.3" stroke-linecap="round" stroke-linejoin="round"/>
</svg>
