<svg width="33" height="34" viewBox="0 0 33 34" fill="none" xmlns="http://www.w3.org/2000/svg">
<path d="M28.8749 3.25L26.1249 6M26.1249 6L30.2499 10.125L25.4374 14.9375L21.3124 10.8125M26.1249 6L21.3124 10.8125M15.6611 16.4637C16.3711 17.1643 16.9355 17.9983 17.3218 18.9178C17.7081 19.8374 17.9087 20.8242 17.9121 21.8216C17.9154 22.819 17.7214 23.8072 17.3413 24.7293C16.9611 25.6514 16.4023 26.4892 15.6971 27.1944C14.9918 27.8997 14.154 28.4585 13.2319 28.8386C12.3098 29.2188 11.3216 29.4128 10.3243 29.4094C9.32688 29.4061 8.34001 29.2055 7.42048 28.8192C6.50094 28.4329 5.66691 27.8685 4.96639 27.1585C3.58882 25.7322 2.82656 23.8219 2.84379 21.839C2.86102 19.8562 3.65636 17.9594 5.05851 16.5572C6.46066 15.1551 8.35743 14.3598 10.3403 14.3425C12.3232 14.3253 14.2335 15.0876 15.6598 16.4651L15.6611 16.4637ZM15.6611 16.4637L21.3124 10.8125" stroke="#717171" stroke-width="2.5" stroke-linecap="round" stroke-linejoin="round"/>
</svg>
