<svg width="33" height="34" viewBox="0 0 33 34" fill="none" xmlns="http://www.w3.org/2000/svg">
<g clip-path="url(#clip0_2629_151)">
<path d="M26.3 21.125C26.117 21.5397 26.0624 21.9998 26.1432 22.4458C26.2241 22.8919 26.4368 23.3034 26.7538 23.6275L26.8363 23.71C27.0919 23.9654 27.2948 24.2687 27.4332 24.6025C27.5716 24.9364 27.6428 25.2942 27.6428 25.6556C27.6428 26.017 27.5716 26.3749 27.4332 26.7087C27.2948 27.0426 27.0919 27.3458 26.8363 27.6013C26.5809 27.8569 26.2776 28.0598 25.9437 28.1982C25.6099 28.3366 25.252 28.4078 24.8906 28.4078C24.5292 28.4078 24.1714 28.3366 23.8375 28.1982C23.5037 28.0598 23.2004 27.8569 22.945 27.6013L22.8625 27.5188C22.5384 27.2018 22.1269 26.9891 21.6808 26.9082C21.2348 26.8274 20.7747 26.882 20.36 27.065C19.9533 27.2393 19.6065 27.5287 19.3622 27.8976C19.1179 28.2665 18.9868 28.6988 18.985 29.1413V29.375C18.985 30.1043 18.6953 30.8038 18.1795 31.3195C17.6638 31.8353 16.9643 32.125 16.235 32.125C15.5057 32.125 14.8062 31.8353 14.2905 31.3195C13.7747 30.8038 13.485 30.1043 13.485 29.375V29.2513C13.4744 28.7961 13.327 28.3547 13.0622 27.9845C12.7974 27.6142 12.4273 27.3321 12 27.175C11.5853 26.992 11.1252 26.9374 10.6792 27.0182C10.2331 27.0991 9.82156 27.3118 9.4975 27.6288L9.415 27.7113C9.1596 27.9669 8.85631 28.1698 8.52246 28.3082C8.18862 28.4466 7.83077 28.5178 7.46938 28.5178C7.10798 28.5178 6.75013 28.4466 6.41629 28.3082C6.08244 28.1698 5.77915 27.9669 5.52375 27.7113C5.26807 27.4559 5.06523 27.1526 4.92684 26.8187C4.78844 26.4849 4.71721 26.127 4.71721 25.7656C4.71721 25.4042 4.78844 25.0464 4.92684 24.7125C5.06523 24.3787 5.26807 24.0754 5.52375 23.82L5.60625 23.7375C5.92324 23.4134 6.13588 23.0019 6.21676 22.5558C6.29763 22.1098 6.24303 21.6497 6.06 21.235C5.8857 20.8283 5.59629 20.4815 5.22739 20.2372C4.85849 19.9929 4.42621 19.8618 3.98375 19.86H3.75C3.02065 19.86 2.32118 19.5703 1.80546 19.0545C1.28973 18.5388 1 17.8393 1 17.11C1 16.3807 1.28973 15.6812 1.80546 15.1655C2.32118 14.6497 3.02065 14.36 3.75 14.36H3.87375C4.32887 14.3494 4.77026 14.202 5.14054 13.9372C5.51082 13.6724 5.79286 13.3023 5.95 12.875C6.13303 12.4603 6.18763 12.0002 6.10676 11.5542C6.02588 11.1081 5.81324 10.6966 5.49625 10.3725L5.41375 10.29C5.15807 10.0346 4.95523 9.73131 4.81684 9.39746C4.67844 9.06362 4.60721 8.70577 4.60721 8.34438C4.60721 7.98298 4.67844 7.62513 4.81684 7.29129C4.95523 6.95744 5.15807 6.65415 5.41375 6.39875C5.66915 6.14307 5.97244 5.94023 6.30629 5.80184C6.64013 5.66344 6.99798 5.59221 7.35938 5.59221C7.72077 5.59221 8.07862 5.66344 8.41246 5.80184C8.74631 5.94023 9.0496 6.14307 9.305 6.39875L9.3875 6.48125C9.71156 6.79824 10.1231 7.01088 10.5692 7.09176C11.0152 7.17263 11.4753 7.11803 11.89 6.935H12C12.4067 6.7607 12.7535 6.47129 12.9978 6.10239C13.2421 5.73349 13.3732 5.30121 13.375 4.85875V4.625C13.375 3.89565 13.6647 3.19618 14.1805 2.68046C14.6962 2.16473 15.3957 1.875 16.125 1.875C16.8543 1.875 17.5538 2.16473 18.0695 2.68046C18.5853 3.19618 18.875 3.89565 18.875 4.625V4.74875C18.8768 5.19121 19.0079 5.62349 19.2522 5.99239C19.4965 6.36129 19.8433 6.6507 20.25 6.825C20.6647 7.00803 21.1248 7.06263 21.5708 6.98176C22.0169 6.90088 22.4284 6.68824 22.7525 6.37125L22.835 6.28875C23.0904 6.03307 23.3937 5.83023 23.7275 5.69184C24.0614 5.55344 24.4192 5.48221 24.7806 5.48221C25.142 5.48221 25.4999 5.55344 25.8337 5.69184C26.1676 5.83023 26.4708 6.03307 26.7263 6.28875C26.9819 6.54415 27.1848 6.84744 27.3232 7.18129C27.4616 7.51513 27.5328 7.87298 27.5328 8.23438C27.5328 8.59577 27.4616 8.95362 27.3232 9.28746C27.1848 9.62131 26.9819 9.9246 26.7263 10.18L26.6438 10.2625C26.3268 10.5866 26.1141 10.9981 26.0332 11.4442C25.9524 11.8902 26.007 12.3503 26.19 12.765V12.875C26.3643 13.2817 26.6537 13.6285 27.0226 13.8728C27.3915 14.1171 27.8238 14.2482 28.2663 14.25H28.5C29.2293 14.25 29.9288 14.5397 30.4445 15.0555C30.9603 15.5712 31.25 16.2707 31.25 17C31.25 17.7293 30.9603 18.4288 30.4445 18.9445C29.9288 19.4603 29.2293 19.75 28.5 19.75H28.3763C27.9338 19.7518 27.5015 19.8829 27.1326 20.1272C26.7637 20.3715 26.4743 20.7183 26.3 21.125Z" stroke="#636075" stroke-width="2.3" stroke-linecap="round" stroke-linejoin="round"/>
<path d="M16.5 21.0312C18.7782 21.0312 20.625 19.2264 20.625 17C20.625 14.7736 18.7782 12.9688 16.5 12.9688C14.2218 12.9688 12.375 14.7736 12.375 17C12.375 19.2264 14.2218 21.0312 16.5 21.0312Z" stroke="#636075" stroke-width="2.3" stroke-linecap="round" stroke-linejoin="round"/>
</g>
<defs>
<clipPath id="clip0_2629_151">
<rect width="33" height="32.25" fill="white" transform="translate(0 0.875)"/>
</clipPath>
</defs>
</svg>
